<svg width="914" height="400" fill="none" xmlns="http://www.w3.org/2000/svg"><style>#CL0 {fill: #333;}#CL1 {fill: #C0C0C0;}@media (prefers-color-scheme: dark) {#CL0 {fill: #CCC;}#CL1 {fill: #444;}}</style><path d="M387.606 215.384c1.872 0 2.952.576 3.924 1.512a1.045 1.045 0 0 0 1.8-.72c0-.324-.144-.54-.252-.684-1.116-1.476-3.024-2.304-5.472-2.304-3.06 0-5.508 1.368-5.508 4.356 0 5.904 9.468 4.428 9.468 8.136 0 1.872-1.764 2.556-3.816 2.556-2.016 0-3.456-.648-4.572-1.764-.288-.288-.576-.36-.792-.36-.576 0-1.044.468-1.044 1.044 0 .252.072.432.252.684.936 1.188 3.204 2.592 6.156 2.592 3.42 0 6.12-1.476 6.12-4.752 0-5.76-9.468-4.356-9.468-8.136 0-1.656 1.584-2.16 3.204-2.16ZM413.486 230a1.06 1.06 0 0 0 1.08-1.08 1.06 1.06 0 0 0-1.08-1.08h-1.512v-8.316c0-3.06-1.08-6.372-6.624-6.372-2.34 0-4.104 1.152-4.788 2.52v-10.296a1.07 1.07 0 0 0-1.08-1.008h-2.664a1.06 1.06 0 0 0-1.08 1.08c0 .612.468 1.08 1.08 1.08h1.44v21.312h-1.512a1.06 1.06 0 0 0-1.08 1.08c0 .612.468 1.08 1.08 1.08h5.328a1.06 1.06 0 0 0 1.08-1.08 1.06 1.06 0 0 0-1.08-1.08h-1.512v-7.596c0-2.88 1.476-5.04 4.788-5.04 3.492 0 4.32 1.944 4.32 4.788v7.848h-1.512a1.06 1.06 0 0 0-1.08 1.08c0 .612.468 1.08 1.08 1.08h5.328Zm2.708-8.208c0 6.048 2.988 8.676 7.776 8.676 3.204 0 5.076-1.476 5.616-2.016.216-.216.396-.432.396-.828 0-.576-.468-1.044-1.044-1.044-.288 0-.432.072-.648.216-1.008.756-2.232 1.548-4.32 1.548-3.384 0-5.436-2.304-5.436-5.868h10.512c1.44 0 1.44-1.26 1.44-2.304 0-2.448-1.116-7.02-6.876-7.02-4.68 0-7.416 3.096-7.416 8.64Zm12.024-1.332h-9.684c.216-3.204 1.944-5.22 5.076-5.22 3.708 0 4.608 2.628 4.608 5.22Zm10.346 9.828a1.06 1.06 0 0 0 1.08-1.08 1.06 1.06 0 0 0-1.08-1.08h-.9c-.9 0-1.296-.72-1.296-2.052v-20.628a1.06 1.06 0 0 0-1.08-1.08h-2.736a1.06 1.06 0 0 0-1.08 1.08c0 .612.468 1.08 1.08 1.08h1.512v19.548c0 2.592 1.224 4.212 3.492 4.212h1.008Zm8.174 0a1.06 1.06 0 0 0 1.08-1.08 1.06 1.06 0 0 0-1.08-1.08h-.9c-.9 0-1.296-.72-1.296-2.052v-20.628a1.06 1.06 0 0 0-1.08-1.08h-2.736a1.06 1.06 0 0 0-1.08 1.08c0 .612.468 1.08 1.08 1.08h1.512v19.548c0 2.592 1.224 4.212 3.492 4.212h1.008Zm2.523-8.496c0 5.904 2.772 8.676 7.416 8.676 2.916 0 4.644-1.296 5.436-1.944.36-.324.468-.576.468-.9 0-.576-.468-1.044-1.044-1.044-.252 0-.432.072-.684.252-.828.612-2.088 1.548-4.176 1.548-3.312 0-5.076-2.088-5.076-6.588 0-4.428 1.764-6.552 5.076-6.552 2.376 0 3.348 1.08 3.888 1.692.252.288.504.432.864.432.576 0 1.044-.432 1.044-1.044 0-.252-.072-.432-.252-.684-.576-.792-2.34-2.484-5.544-2.484-4.644 0-7.416 2.736-7.416 8.64ZM481.886 230a1.06 1.06 0 0 0 1.08-1.08 1.06 1.06 0 0 0-1.08-1.08h-1.512v-8.316c0-3.06-1.08-6.372-6.624-6.372-2.34 0-4.104 1.152-4.788 2.52v-10.296a1.07 1.07 0 0 0-1.08-1.008h-2.664a1.06 1.06 0 0 0-1.08 1.08c0 .612.468 1.08 1.08 1.08h1.44v21.312h-1.512a1.06 1.06 0 0 0-1.08 1.08c0 .612.468 1.08 1.08 1.08h5.328a1.06 1.06 0 0 0 1.08-1.08 1.06 1.06 0 0 0-1.08-1.08h-1.512v-7.596c0-2.88 1.476-5.04 4.788-5.04 3.492 0 4.32 1.944 4.32 4.788v7.848h-1.512a1.06 1.06 0 0 0-1.08 1.08c0 .612.468 1.08 1.08 1.08h5.328Zm2.708-8.208c0 6.048 2.988 8.676 7.776 8.676 3.204 0 5.076-1.476 5.616-2.016.216-.216.396-.432.396-.828 0-.576-.468-1.044-1.044-1.044-.288 0-.432.072-.648.216-1.008.756-2.232 1.548-4.32 1.548-3.384 0-5.436-2.304-5.436-5.868h10.512c1.44 0 1.44-1.26 1.44-2.304 0-2.448-1.116-7.02-6.876-7.02-4.68 0-7.416 3.096-7.416 8.64Zm12.024-1.332h-9.684c.216-3.204 1.944-5.22 5.076-5.22 3.708 0 4.608 2.628 4.608 5.22Zm4.694 1.332c0 5.904 2.772 8.676 7.416 8.676 2.916 0 4.644-1.296 5.436-1.944.36-.324.468-.576.468-.9 0-.576-.468-1.044-1.044-1.044-.252 0-.432.072-.684.252-.828.612-2.088 1.548-4.176 1.548-3.312 0-5.076-2.088-5.076-6.588 0-4.428 1.764-6.552 5.076-6.552 2.376 0 3.348 1.08 3.888 1.692.252.288.504.432.864.432.576 0 1.044-.432 1.044-1.044 0-.252-.072-.432-.252-.684-.576-.792-2.34-2.484-5.544-2.484-4.644 0-7.416 2.736-7.416 8.64ZM522.525 230a1.06 1.06 0 0 0 1.08-1.08 1.06 1.06 0 0 0-1.08-1.08h-1.512v-4.356l2.448-2.268 6.048 8.28c.18.252.504.504 1.044.504h2.124a1.06 1.06 0 0 0 1.08-1.08 1.06 1.06 0 0 0-1.08-1.08h-1.62l-5.976-8.028 4.32-3.996h2.16a1.06 1.06 0 0 0 1.08-1.08 1.06 1.06 0 0 0-1.08-1.08h-2.448c-.396 0-.576.18-.684.288l-7.416 6.876v-15.372c0-.576-.432-1.08-1.008-1.08h-2.736a1.06 1.06 0 0 0-1.08 1.08c0 .612.468 1.08 1.08 1.08h1.44v21.312h-1.512a1.06 1.06 0 0 0-1.08 1.08c0 .612.468 1.08 1.08 1.08h5.328Z" id="CL0"/><path d="M407.408 182.043c-1.459.794-3.083 1.191-4.873 1.191-2.071 0-3.747-.644-5.03-1.933-1.282-1.289-1.923-2.995-1.923-5.117 0-2.168.7-3.946 2.099-5.332 1.406-1.394 3.19-2.09 5.352-2.09 1.556 0 2.864.228 3.926.683v2.393c-1.075-.716-2.354-1.074-3.838-1.074-1.491 0-2.715.491-3.672 1.474-.951.983-1.426 2.256-1.426 3.819 0 1.608.41 2.874 1.231 3.798.82.918 1.933 1.377 3.339 1.377.964 0 1.797-.185 2.5-.556v-3.33h-2.949v-1.953h5.264v6.65Zm3.506-11.143c-.371 0-.69-.12-.957-.361a1.198 1.198 0 0 1-.391-.918c0-.371.131-.68.391-.928.267-.247.586-.371.957-.371.384 0 .71.124.977.371.267.248.4.557.4.928 0 .352-.133.654-.4.908a1.383 1.383 0 0 1-.977.371Zm1.123 12.1h-2.266v-10h2.266v10Zm7.842-.107c-.442.221-1.025.332-1.748.332-1.94 0-2.91-.931-2.91-2.793v-5.655h-1.67V173h1.67v-2.314l2.266-.645V173h2.392v1.777h-2.392v5c0 .593.107 1.016.322 1.27.215.254.573.381 1.074.381.384 0 .716-.111.996-.332v1.797Zm13.057.107h-2.334v-6.074h-6.591V183h-2.325v-14.004h2.325v5.889h6.591v-5.889h2.334V183Zm11.524 0h-2.265v-1.582h-.04c-.657 1.211-1.679 1.816-3.066 1.816-2.363 0-3.545-1.419-3.545-4.257V173h2.266v5.742c0 1.797.693 2.696 2.08 2.696.67 0 1.221-.248 1.65-.743.436-.494.655-1.142.655-1.943V173h2.265v10Zm4.864-1.445h-.039V183h-2.266v-14.805h2.266v6.563h.039c.775-1.328 1.907-1.992 3.398-1.992 1.263 0 2.25.449 2.959 1.347.716.892 1.074 2.09 1.074 3.594 0 1.673-.4 3.014-1.201 4.023-.8 1.003-1.894 1.504-3.281 1.504-1.302 0-2.285-.56-2.949-1.679Zm-.059-3.975v1.24c0 .729.231 1.348.694 1.856.468.508 1.061.762 1.777.762.84 0 1.497-.326 1.973-.977.481-.658.722-1.572.722-2.744 0-.983-.224-1.752-.674-2.305-.442-.56-1.045-.84-1.806-.84-.808 0-1.459.287-1.953.86-.489.573-.733 1.289-.733 2.148Zm26.271 5.42h-2.549l-1.26-3.564h-5.508L465.008 183h-2.539l5.244-14.004h2.617L475.536 183Zm-4.424-5.459-1.944-5.586a6.696 6.696 0 0 1-.185-.879h-.039a5.716 5.716 0 0 1-.196.879l-1.923 5.586h4.287Zm12.861 5c-.8.462-1.748.693-2.841.693-1.485 0-2.683-.462-3.594-1.386-.912-.931-1.367-2.136-1.367-3.614 0-1.647.488-2.968 1.465-3.964.983-1.003 2.294-1.504 3.935-1.504.912 0 1.716.159 2.412.478v2.11c-.696-.521-1.439-.782-2.226-.782-.957 0-1.742.326-2.354.977-.612.644-.918 1.491-.918 2.539 0 1.035.287 1.852.86 2.451.579.599 1.354.899 2.324.899.814 0 1.582-.29 2.304-.87v1.973Zm7.13.352c-.443.221-1.026.332-1.748.332-1.94 0-2.91-.931-2.91-2.793v-5.655h-1.67V173h1.67v-2.314l2.265-.645V173h2.393v1.777h-2.393v5c0 .593.108 1.016.322 1.27.215.254.573.381 1.075.381.384 0 .716-.111.996-.332v1.797Zm2.695-11.993c-.371 0-.69-.12-.957-.361a1.197 1.197 0 0 1-.39-.918c0-.371.13-.68.39-.928.267-.247.586-.371.957-.371.385 0 .71.124.977.371.267.248.4.557.4.928 0 .352-.133.654-.4.908a1.381 1.381 0 0 1-.977.371Zm1.123 12.1h-2.265v-10h2.265v10Zm7.003.234c-1.543 0-2.777-.465-3.701-1.396-.918-.938-1.377-2.178-1.377-3.721 0-1.679.478-2.991 1.435-3.935.964-.944 2.259-1.416 3.887-1.416 1.562 0 2.78.459 3.652 1.377.873.918 1.309 2.19 1.309 3.818 0 1.595-.472 2.874-1.416 3.838-.938.957-2.201 1.435-3.789 1.435Zm.107-8.662c-.885 0-1.585.31-2.099.928-.515.618-.772 1.471-.772 2.559 0 1.048.261 1.875.781 2.48.521.599 1.218.899 2.09.899.892 0 1.576-.297 2.051-.889.482-.593.723-1.436.723-2.529 0-1.101-.241-1.95-.723-2.549-.475-.599-1.159-.899-2.051-.899ZM517.95 183h-2.266v-5.635c0-1.868-.661-2.803-1.982-2.803-.691 0-1.26.261-1.709.782-.45.514-.674 1.165-.674 1.953V183h-2.276v-10h2.276v1.66h.039c.748-1.263 1.829-1.894 3.242-1.894 1.087 0 1.917.354 2.49 1.064.573.703.86 1.722.86 3.057V183Z" id="CL1"/></svg>